<svg xmlns="http://www.w3.org/2000/svg" viewBox="0 0 312.44 85.35"><title>afip-logo</title><g id="background"><path d="M209,187.73l-9.4-21.55a6,6,0,0,0-5.15-3.58H177a6.07,6.07,0,0,0-5.6,3.84l-34.32,75.29a4.68,4.68,0,0,0,.17,4.36,4.11,4.11,0,0,0,3.59,1.86h40.28a5.49,5.49,0,0,0,5.23-3.14L191.12,234l27.1,0h.32a7.05,7.05,0,0,0,5.65-3.07,8.52,8.52,0,0,0,.7-8Zm12,38.76a2.9,2.9,0,0,1-.51,1.77,2.63,2.63,0,0,1-2.08,1.14H193.18l14.7-33.09,7.06,15.62,5.72,12.66A5.57,5.57,0,0,1,221,226.49ZM182.2,242.91c-.16.39-.87.41-1.09.41H141.33l34.12-74.89a1.46,1.46,0,0,1,1.54-1h17.45a1.19,1.19,0,0,1,1.05.64l9.38,21.51.18.45a1.76,1.76,0,0,1,.19.69,2.11,2.11,0,0,1-.22.8l-.06.12c-.88,2-16.13,36.33-21.15,47.61Z" transform="translate(-136.62 -162.6)" fill="#262424"/><path d="M353.35,162.6H320.18a6,6,0,0,0-4.35,2,7.2,7.2,0,0,0-1.73,4.93v57.07c0,3.4,2.34,7,5.83,7h33a6.62,6.62,0,0,0,6.28-6.91l0-57a7.38,7.38,0,0,0-1.94-5.34A5.49,5.49,0,0,0,353.35,162.6Zm0,4.76a.93.93,0,0,1,.7.31,3.07,3.07,0,0,1,.61,2.08l0,57a2.07,2.07,0,0,1-1.76,2.29h-33c-.46,0-1.3-1-1.3-2.42V169.71a2.88,2.88,0,0,1,.48-2,1.48,1.48,0,0,1,1.09-.36Z" transform="translate(-136.62 -162.6)" fill="#262424"/><path d="M448,165.91a6.87,6.87,0,0,0-5.67-3.31H372.53c-5.08,0-7.4,3.88-7.4,7.5v56.46a7.54,7.54,0,0,0,2,5.26,5.83,5.83,0,0,0,4.31,1.79h32a7,7,0,0,0,6.77-6.9V214.1l12.61,0c2.24,0,7.71-.6,10.23-6.14l15.16-34.35A8.37,8.37,0,0,0,448,165.91Zm-3.5,3.83a4.92,4.92,0,0,1-.45,1.94L429,206c-1.35,3-4.42,3.44-6.13,3.44l-12.6,0,0-42.17h32a2.5,2.5,0,0,1,1.92,1A2.91,2.91,0,0,1,444.54,169.74Zm-38.84,57a2.47,2.47,0,0,1-2.26,2.26h-32a1.46,1.46,0,0,1-1.12-.41,3,3,0,0,1-.65-2V170.1a2.56,2.56,0,0,1,2.88-2.79h31.13l.32,0h1.74Z" transform="translate(-136.62 -162.6)" fill="#262424"/><path d="M303.07,162.6H238.7c-4.32,0-7.12,2.73-7.12,7v57.66c0,3.66,2.56,6.52,5.83,6.52h33a6.61,6.61,0,0,0,6.26-6.91l0-12.84h5.58c2,0,3.64.09,5-.47a4.46,4.46,0,0,0,2.1-2.23l6.18-14c.1-.27.3-.69.57-1.24s.7-1.44,1.1-2.37c.32-.71.68-1.52,1.07-2.37l1.19-2.65c.41-.94.82-1.88,1.28-2.84.2-.42.39-.87.59-1.31s.5-1.15.75-1.68L307.76,170a5.34,5.34,0,0,0-.33-5A5.16,5.16,0,0,0,303.07,162.6Zm.25,5.38a.8.8,0,0,1-.05.31l-6.34,14c-1.57,3.74-1.71,3.74-5.27,3.74h-15l0-18.71h26a.53.53,0,0,1,.52.26A.73.73,0,0,1,303.32,168Zm-20.55,41.47h-6.09V190.58h15.23a.77.77,0,0,1,.62.36.93.93,0,0,1,.14.53,1.56,1.56,0,0,1-.11.57l-.09.24c-1.26,3.13-4.39,10.84-6.45,15C285,209.45,285,209.45,282.77,209.45Zm-46.64-39.89c0-1.75.65-2.34,2.57-2.34l10.51,0,21.37.07h1.59v59.5a2.05,2.05,0,0,1-1.75,2.26h-33c-.73,0-1.28-.8-1.28-1.87Z" transform="translate(-136.62 -162.6)" fill="#262424"/></g></svg>